%TF.GenerationSoftware,KiCad,Pcbnew,8.0.6-8.0.6-0~ubuntu22.04.1*%
%TF.CreationDate,2024-12-02T16:14:19+00:00*%
%TF.ProjectId,miniv_motor_controller_board,6d696e69-765f-46d6-9f74-6f725f636f6e,rev?*%
%TF.SameCoordinates,Original*%
%TF.FileFunction,Drillmap*%
%TF.FilePolarity,Positive*%
%FSLAX45Y45*%
G04 Gerber Fmt 4.5, Leading zero omitted, Abs format (unit mm)*
G04 Created by KiCad (PCBNEW 8.0.6-8.0.6-0~ubuntu22.04.1) date 2024-12-02 16:14:19*
%MOMM*%
%LPD*%
G01*
G04 APERTURE LIST*
%ADD10C,0.050000*%
%ADD11C,0.200000*%
%ADD12C,0.320000*%
G04 APERTURE END LIST*
D10*
X4200000Y-5000000D02*
X12200000Y-5000000D01*
X12200000Y-15000000D01*
X4200000Y-15000000D01*
X4200000Y-5000000D01*
D11*
D12*
X4440000Y-5240000D02*
X4760000Y-5560000D01*
X4760000Y-5240000D02*
X4440000Y-5560000D01*
X4440000Y-14440000D02*
X4760000Y-14760000D01*
X4760000Y-14440000D02*
X4440000Y-14760000D01*
X11640000Y-5240000D02*
X11960000Y-5560000D01*
X11960000Y-5240000D02*
X11640000Y-5560000D01*
X11640000Y-14440000D02*
X11960000Y-14760000D01*
X11960000Y-14440000D02*
X11640000Y-14760000D01*
D11*
X4458277Y-15313984D02*
X4458277Y-15113984D01*
X4458277Y-15113984D02*
X4505896Y-15113984D01*
X4505896Y-15113984D02*
X4534467Y-15123508D01*
X4534467Y-15123508D02*
X4553515Y-15142555D01*
X4553515Y-15142555D02*
X4563039Y-15161603D01*
X4563039Y-15161603D02*
X4572563Y-15199698D01*
X4572563Y-15199698D02*
X4572563Y-15228269D01*
X4572563Y-15228269D02*
X4563039Y-15266365D01*
X4563039Y-15266365D02*
X4553515Y-15285412D01*
X4553515Y-15285412D02*
X4534467Y-15304460D01*
X4534467Y-15304460D02*
X4505896Y-15313984D01*
X4505896Y-15313984D02*
X4458277Y-15313984D01*
X4658277Y-15313984D02*
X4658277Y-15180650D01*
X4658277Y-15218746D02*
X4667801Y-15199698D01*
X4667801Y-15199698D02*
X4677324Y-15190174D01*
X4677324Y-15190174D02*
X4696372Y-15180650D01*
X4696372Y-15180650D02*
X4715420Y-15180650D01*
X4782086Y-15313984D02*
X4782086Y-15180650D01*
X4782086Y-15113984D02*
X4772563Y-15123508D01*
X4772563Y-15123508D02*
X4782086Y-15133031D01*
X4782086Y-15133031D02*
X4791610Y-15123508D01*
X4791610Y-15123508D02*
X4782086Y-15113984D01*
X4782086Y-15113984D02*
X4782086Y-15133031D01*
X4905896Y-15313984D02*
X4886848Y-15304460D01*
X4886848Y-15304460D02*
X4877324Y-15285412D01*
X4877324Y-15285412D02*
X4877324Y-15113984D01*
X5010658Y-15313984D02*
X4991610Y-15304460D01*
X4991610Y-15304460D02*
X4982086Y-15285412D01*
X4982086Y-15285412D02*
X4982086Y-15113984D01*
X5239229Y-15313984D02*
X5239229Y-15113984D01*
X5239229Y-15113984D02*
X5305896Y-15256841D01*
X5305896Y-15256841D02*
X5372563Y-15113984D01*
X5372563Y-15113984D02*
X5372563Y-15313984D01*
X5553515Y-15313984D02*
X5553515Y-15209222D01*
X5553515Y-15209222D02*
X5543991Y-15190174D01*
X5543991Y-15190174D02*
X5524944Y-15180650D01*
X5524944Y-15180650D02*
X5486848Y-15180650D01*
X5486848Y-15180650D02*
X5467801Y-15190174D01*
X5553515Y-15304460D02*
X5534467Y-15313984D01*
X5534467Y-15313984D02*
X5486848Y-15313984D01*
X5486848Y-15313984D02*
X5467801Y-15304460D01*
X5467801Y-15304460D02*
X5458277Y-15285412D01*
X5458277Y-15285412D02*
X5458277Y-15266365D01*
X5458277Y-15266365D02*
X5467801Y-15247317D01*
X5467801Y-15247317D02*
X5486848Y-15237793D01*
X5486848Y-15237793D02*
X5534467Y-15237793D01*
X5534467Y-15237793D02*
X5553515Y-15228269D01*
X5648753Y-15180650D02*
X5648753Y-15380650D01*
X5648753Y-15190174D02*
X5667801Y-15180650D01*
X5667801Y-15180650D02*
X5705896Y-15180650D01*
X5705896Y-15180650D02*
X5724943Y-15190174D01*
X5724943Y-15190174D02*
X5734467Y-15199698D01*
X5734467Y-15199698D02*
X5743991Y-15218746D01*
X5743991Y-15218746D02*
X5743991Y-15275888D01*
X5743991Y-15275888D02*
X5734467Y-15294936D01*
X5734467Y-15294936D02*
X5724943Y-15304460D01*
X5724943Y-15304460D02*
X5705896Y-15313984D01*
X5705896Y-15313984D02*
X5667801Y-15313984D01*
X5667801Y-15313984D02*
X5648753Y-15304460D01*
X5829705Y-15294936D02*
X5839229Y-15304460D01*
X5839229Y-15304460D02*
X5829705Y-15313984D01*
X5829705Y-15313984D02*
X5820182Y-15304460D01*
X5820182Y-15304460D02*
X5829705Y-15294936D01*
X5829705Y-15294936D02*
X5829705Y-15313984D01*
X5829705Y-15190174D02*
X5839229Y-15199698D01*
X5839229Y-15199698D02*
X5829705Y-15209222D01*
X5829705Y-15209222D02*
X5820182Y-15199698D01*
X5820182Y-15199698D02*
X5829705Y-15190174D01*
X5829705Y-15190174D02*
X5829705Y-15209222D01*
X3997500Y-15542500D02*
X4197500Y-15742500D01*
X4197500Y-15542500D02*
X3997500Y-15742500D01*
X4439229Y-15533984D02*
X4563039Y-15533984D01*
X4563039Y-15533984D02*
X4496372Y-15610174D01*
X4496372Y-15610174D02*
X4524944Y-15610174D01*
X4524944Y-15610174D02*
X4543991Y-15619698D01*
X4543991Y-15619698D02*
X4553515Y-15629222D01*
X4553515Y-15629222D02*
X4563039Y-15648269D01*
X4563039Y-15648269D02*
X4563039Y-15695888D01*
X4563039Y-15695888D02*
X4553515Y-15714936D01*
X4553515Y-15714936D02*
X4543991Y-15724460D01*
X4543991Y-15724460D02*
X4524944Y-15733984D01*
X4524944Y-15733984D02*
X4467801Y-15733984D01*
X4467801Y-15733984D02*
X4448753Y-15724460D01*
X4448753Y-15724460D02*
X4439229Y-15714936D01*
X4648753Y-15714936D02*
X4658277Y-15724460D01*
X4658277Y-15724460D02*
X4648753Y-15733984D01*
X4648753Y-15733984D02*
X4639229Y-15724460D01*
X4639229Y-15724460D02*
X4648753Y-15714936D01*
X4648753Y-15714936D02*
X4648753Y-15733984D01*
X4734467Y-15553031D02*
X4743991Y-15543508D01*
X4743991Y-15543508D02*
X4763039Y-15533984D01*
X4763039Y-15533984D02*
X4810658Y-15533984D01*
X4810658Y-15533984D02*
X4829705Y-15543508D01*
X4829705Y-15543508D02*
X4839229Y-15553031D01*
X4839229Y-15553031D02*
X4848753Y-15572079D01*
X4848753Y-15572079D02*
X4848753Y-15591127D01*
X4848753Y-15591127D02*
X4839229Y-15619698D01*
X4839229Y-15619698D02*
X4724944Y-15733984D01*
X4724944Y-15733984D02*
X4848753Y-15733984D01*
X4972563Y-15533984D02*
X4991610Y-15533984D01*
X4991610Y-15533984D02*
X5010658Y-15543508D01*
X5010658Y-15543508D02*
X5020182Y-15553031D01*
X5020182Y-15553031D02*
X5029705Y-15572079D01*
X5029705Y-15572079D02*
X5039229Y-15610174D01*
X5039229Y-15610174D02*
X5039229Y-15657793D01*
X5039229Y-15657793D02*
X5029705Y-15695888D01*
X5029705Y-15695888D02*
X5020182Y-15714936D01*
X5020182Y-15714936D02*
X5010658Y-15724460D01*
X5010658Y-15724460D02*
X4991610Y-15733984D01*
X4991610Y-15733984D02*
X4972563Y-15733984D01*
X4972563Y-15733984D02*
X4953515Y-15724460D01*
X4953515Y-15724460D02*
X4943991Y-15714936D01*
X4943991Y-15714936D02*
X4934467Y-15695888D01*
X4934467Y-15695888D02*
X4924944Y-15657793D01*
X4924944Y-15657793D02*
X4924944Y-15610174D01*
X4924944Y-15610174D02*
X4934467Y-15572079D01*
X4934467Y-15572079D02*
X4943991Y-15553031D01*
X4943991Y-15553031D02*
X4953515Y-15543508D01*
X4953515Y-15543508D02*
X4972563Y-15533984D01*
X5163039Y-15533984D02*
X5182086Y-15533984D01*
X5182086Y-15533984D02*
X5201134Y-15543508D01*
X5201134Y-15543508D02*
X5210658Y-15553031D01*
X5210658Y-15553031D02*
X5220182Y-15572079D01*
X5220182Y-15572079D02*
X5229705Y-15610174D01*
X5229705Y-15610174D02*
X5229705Y-15657793D01*
X5229705Y-15657793D02*
X5220182Y-15695888D01*
X5220182Y-15695888D02*
X5210658Y-15714936D01*
X5210658Y-15714936D02*
X5201134Y-15724460D01*
X5201134Y-15724460D02*
X5182086Y-15733984D01*
X5182086Y-15733984D02*
X5163039Y-15733984D01*
X5163039Y-15733984D02*
X5143991Y-15724460D01*
X5143991Y-15724460D02*
X5134467Y-15714936D01*
X5134467Y-15714936D02*
X5124944Y-15695888D01*
X5124944Y-15695888D02*
X5115420Y-15657793D01*
X5115420Y-15657793D02*
X5115420Y-15610174D01*
X5115420Y-15610174D02*
X5124944Y-15572079D01*
X5124944Y-15572079D02*
X5134467Y-15553031D01*
X5134467Y-15553031D02*
X5143991Y-15543508D01*
X5143991Y-15543508D02*
X5163039Y-15533984D01*
X5315420Y-15733984D02*
X5315420Y-15600650D01*
X5315420Y-15619698D02*
X5324944Y-15610174D01*
X5324944Y-15610174D02*
X5343991Y-15600650D01*
X5343991Y-15600650D02*
X5372563Y-15600650D01*
X5372563Y-15600650D02*
X5391610Y-15610174D01*
X5391610Y-15610174D02*
X5401134Y-15629222D01*
X5401134Y-15629222D02*
X5401134Y-15733984D01*
X5401134Y-15629222D02*
X5410658Y-15610174D01*
X5410658Y-15610174D02*
X5429705Y-15600650D01*
X5429705Y-15600650D02*
X5458277Y-15600650D01*
X5458277Y-15600650D02*
X5477325Y-15610174D01*
X5477325Y-15610174D02*
X5486848Y-15629222D01*
X5486848Y-15629222D02*
X5486848Y-15733984D01*
X5582086Y-15733984D02*
X5582086Y-15600650D01*
X5582086Y-15619698D02*
X5591610Y-15610174D01*
X5591610Y-15610174D02*
X5610658Y-15600650D01*
X5610658Y-15600650D02*
X5639229Y-15600650D01*
X5639229Y-15600650D02*
X5658277Y-15610174D01*
X5658277Y-15610174D02*
X5667801Y-15629222D01*
X5667801Y-15629222D02*
X5667801Y-15733984D01*
X5667801Y-15629222D02*
X5677324Y-15610174D01*
X5677324Y-15610174D02*
X5696372Y-15600650D01*
X5696372Y-15600650D02*
X5724943Y-15600650D01*
X5724943Y-15600650D02*
X5743991Y-15610174D01*
X5743991Y-15610174D02*
X5753515Y-15629222D01*
X5753515Y-15629222D02*
X5753515Y-15733984D01*
X6143991Y-15524460D02*
X5972563Y-15781603D01*
X6401134Y-15533984D02*
X6420182Y-15533984D01*
X6420182Y-15533984D02*
X6439229Y-15543508D01*
X6439229Y-15543508D02*
X6448753Y-15553031D01*
X6448753Y-15553031D02*
X6458277Y-15572079D01*
X6458277Y-15572079D02*
X6467801Y-15610174D01*
X6467801Y-15610174D02*
X6467801Y-15657793D01*
X6467801Y-15657793D02*
X6458277Y-15695888D01*
X6458277Y-15695888D02*
X6448753Y-15714936D01*
X6448753Y-15714936D02*
X6439229Y-15724460D01*
X6439229Y-15724460D02*
X6420182Y-15733984D01*
X6420182Y-15733984D02*
X6401134Y-15733984D01*
X6401134Y-15733984D02*
X6382086Y-15724460D01*
X6382086Y-15724460D02*
X6372563Y-15714936D01*
X6372563Y-15714936D02*
X6363039Y-15695888D01*
X6363039Y-15695888D02*
X6353515Y-15657793D01*
X6353515Y-15657793D02*
X6353515Y-15610174D01*
X6353515Y-15610174D02*
X6363039Y-15572079D01*
X6363039Y-15572079D02*
X6372563Y-15553031D01*
X6372563Y-15553031D02*
X6382086Y-15543508D01*
X6382086Y-15543508D02*
X6401134Y-15533984D01*
X6553515Y-15714936D02*
X6563039Y-15724460D01*
X6563039Y-15724460D02*
X6553515Y-15733984D01*
X6553515Y-15733984D02*
X6543991Y-15724460D01*
X6543991Y-15724460D02*
X6553515Y-15714936D01*
X6553515Y-15714936D02*
X6553515Y-15733984D01*
X6753515Y-15733984D02*
X6639229Y-15733984D01*
X6696372Y-15733984D02*
X6696372Y-15533984D01*
X6696372Y-15533984D02*
X6677325Y-15562555D01*
X6677325Y-15562555D02*
X6658277Y-15581603D01*
X6658277Y-15581603D02*
X6639229Y-15591127D01*
X6829706Y-15553031D02*
X6839229Y-15543508D01*
X6839229Y-15543508D02*
X6858277Y-15533984D01*
X6858277Y-15533984D02*
X6905896Y-15533984D01*
X6905896Y-15533984D02*
X6924944Y-15543508D01*
X6924944Y-15543508D02*
X6934467Y-15553031D01*
X6934467Y-15553031D02*
X6943991Y-15572079D01*
X6943991Y-15572079D02*
X6943991Y-15591127D01*
X6943991Y-15591127D02*
X6934467Y-15619698D01*
X6934467Y-15619698D02*
X6820182Y-15733984D01*
X6820182Y-15733984D02*
X6943991Y-15733984D01*
X7115420Y-15533984D02*
X7077325Y-15533984D01*
X7077325Y-15533984D02*
X7058277Y-15543508D01*
X7058277Y-15543508D02*
X7048753Y-15553031D01*
X7048753Y-15553031D02*
X7029706Y-15581603D01*
X7029706Y-15581603D02*
X7020182Y-15619698D01*
X7020182Y-15619698D02*
X7020182Y-15695888D01*
X7020182Y-15695888D02*
X7029706Y-15714936D01*
X7029706Y-15714936D02*
X7039229Y-15724460D01*
X7039229Y-15724460D02*
X7058277Y-15733984D01*
X7058277Y-15733984D02*
X7096372Y-15733984D01*
X7096372Y-15733984D02*
X7115420Y-15724460D01*
X7115420Y-15724460D02*
X7124944Y-15714936D01*
X7124944Y-15714936D02*
X7134467Y-15695888D01*
X7134467Y-15695888D02*
X7134467Y-15648269D01*
X7134467Y-15648269D02*
X7124944Y-15629222D01*
X7124944Y-15629222D02*
X7115420Y-15619698D01*
X7115420Y-15619698D02*
X7096372Y-15610174D01*
X7096372Y-15610174D02*
X7058277Y-15610174D01*
X7058277Y-15610174D02*
X7039229Y-15619698D01*
X7039229Y-15619698D02*
X7029706Y-15629222D01*
X7029706Y-15629222D02*
X7020182Y-15648269D01*
X7258277Y-15533984D02*
X7277325Y-15533984D01*
X7277325Y-15533984D02*
X7296372Y-15543508D01*
X7296372Y-15543508D02*
X7305896Y-15553031D01*
X7305896Y-15553031D02*
X7315420Y-15572079D01*
X7315420Y-15572079D02*
X7324944Y-15610174D01*
X7324944Y-15610174D02*
X7324944Y-15657793D01*
X7324944Y-15657793D02*
X7315420Y-15695888D01*
X7315420Y-15695888D02*
X7305896Y-15714936D01*
X7305896Y-15714936D02*
X7296372Y-15724460D01*
X7296372Y-15724460D02*
X7277325Y-15733984D01*
X7277325Y-15733984D02*
X7258277Y-15733984D01*
X7258277Y-15733984D02*
X7239229Y-15724460D01*
X7239229Y-15724460D02*
X7229706Y-15714936D01*
X7229706Y-15714936D02*
X7220182Y-15695888D01*
X7220182Y-15695888D02*
X7210658Y-15657793D01*
X7210658Y-15657793D02*
X7210658Y-15610174D01*
X7210658Y-15610174D02*
X7220182Y-15572079D01*
X7220182Y-15572079D02*
X7229706Y-15553031D01*
X7229706Y-15553031D02*
X7239229Y-15543508D01*
X7239229Y-15543508D02*
X7258277Y-15533984D01*
X7401134Y-15533984D02*
X7401134Y-15572079D01*
X7477325Y-15533984D02*
X7477325Y-15572079D01*
X7772563Y-15810174D02*
X7763039Y-15800650D01*
X7763039Y-15800650D02*
X7743991Y-15772079D01*
X7743991Y-15772079D02*
X7734468Y-15753031D01*
X7734468Y-15753031D02*
X7724944Y-15724460D01*
X7724944Y-15724460D02*
X7715420Y-15676841D01*
X7715420Y-15676841D02*
X7715420Y-15638746D01*
X7715420Y-15638746D02*
X7724944Y-15591127D01*
X7724944Y-15591127D02*
X7734468Y-15562555D01*
X7734468Y-15562555D02*
X7743991Y-15543508D01*
X7743991Y-15543508D02*
X7763039Y-15514936D01*
X7763039Y-15514936D02*
X7772563Y-15505412D01*
X7934468Y-15600650D02*
X7934468Y-15733984D01*
X7886848Y-15524460D02*
X7839229Y-15667317D01*
X7839229Y-15667317D02*
X7963039Y-15667317D01*
X8191610Y-15733984D02*
X8191610Y-15533984D01*
X8277325Y-15733984D02*
X8277325Y-15629222D01*
X8277325Y-15629222D02*
X8267801Y-15610174D01*
X8267801Y-15610174D02*
X8248753Y-15600650D01*
X8248753Y-15600650D02*
X8220182Y-15600650D01*
X8220182Y-15600650D02*
X8201134Y-15610174D01*
X8201134Y-15610174D02*
X8191610Y-15619698D01*
X8401134Y-15733984D02*
X8382087Y-15724460D01*
X8382087Y-15724460D02*
X8372563Y-15714936D01*
X8372563Y-15714936D02*
X8363039Y-15695888D01*
X8363039Y-15695888D02*
X8363039Y-15638746D01*
X8363039Y-15638746D02*
X8372563Y-15619698D01*
X8372563Y-15619698D02*
X8382087Y-15610174D01*
X8382087Y-15610174D02*
X8401134Y-15600650D01*
X8401134Y-15600650D02*
X8429706Y-15600650D01*
X8429706Y-15600650D02*
X8448753Y-15610174D01*
X8448753Y-15610174D02*
X8458277Y-15619698D01*
X8458277Y-15619698D02*
X8467801Y-15638746D01*
X8467801Y-15638746D02*
X8467801Y-15695888D01*
X8467801Y-15695888D02*
X8458277Y-15714936D01*
X8458277Y-15714936D02*
X8448753Y-15724460D01*
X8448753Y-15724460D02*
X8429706Y-15733984D01*
X8429706Y-15733984D02*
X8401134Y-15733984D01*
X8582087Y-15733984D02*
X8563039Y-15724460D01*
X8563039Y-15724460D02*
X8553515Y-15705412D01*
X8553515Y-15705412D02*
X8553515Y-15533984D01*
X8734468Y-15724460D02*
X8715420Y-15733984D01*
X8715420Y-15733984D02*
X8677325Y-15733984D01*
X8677325Y-15733984D02*
X8658277Y-15724460D01*
X8658277Y-15724460D02*
X8648753Y-15705412D01*
X8648753Y-15705412D02*
X8648753Y-15629222D01*
X8648753Y-15629222D02*
X8658277Y-15610174D01*
X8658277Y-15610174D02*
X8677325Y-15600650D01*
X8677325Y-15600650D02*
X8715420Y-15600650D01*
X8715420Y-15600650D02*
X8734468Y-15610174D01*
X8734468Y-15610174D02*
X8743992Y-15629222D01*
X8743992Y-15629222D02*
X8743992Y-15648269D01*
X8743992Y-15648269D02*
X8648753Y-15667317D01*
X8820182Y-15724460D02*
X8839230Y-15733984D01*
X8839230Y-15733984D02*
X8877325Y-15733984D01*
X8877325Y-15733984D02*
X8896373Y-15724460D01*
X8896373Y-15724460D02*
X8905896Y-15705412D01*
X8905896Y-15705412D02*
X8905896Y-15695888D01*
X8905896Y-15695888D02*
X8896373Y-15676841D01*
X8896373Y-15676841D02*
X8877325Y-15667317D01*
X8877325Y-15667317D02*
X8848753Y-15667317D01*
X8848753Y-15667317D02*
X8829706Y-15657793D01*
X8829706Y-15657793D02*
X8820182Y-15638746D01*
X8820182Y-15638746D02*
X8820182Y-15629222D01*
X8820182Y-15629222D02*
X8829706Y-15610174D01*
X8829706Y-15610174D02*
X8848753Y-15600650D01*
X8848753Y-15600650D02*
X8877325Y-15600650D01*
X8877325Y-15600650D02*
X8896373Y-15610174D01*
X8972563Y-15810174D02*
X8982087Y-15800650D01*
X8982087Y-15800650D02*
X9001134Y-15772079D01*
X9001134Y-15772079D02*
X9010658Y-15753031D01*
X9010658Y-15753031D02*
X9020182Y-15724460D01*
X9020182Y-15724460D02*
X9029706Y-15676841D01*
X9029706Y-15676841D02*
X9029706Y-15638746D01*
X9029706Y-15638746D02*
X9020182Y-15591127D01*
X9020182Y-15591127D02*
X9010658Y-15562555D01*
X9010658Y-15562555D02*
X9001134Y-15543508D01*
X9001134Y-15543508D02*
X8982087Y-15514936D01*
X8982087Y-15514936D02*
X8972563Y-15505412D01*
X9334468Y-15810174D02*
X9324944Y-15800650D01*
X9324944Y-15800650D02*
X9305896Y-15772079D01*
X9305896Y-15772079D02*
X9296373Y-15753031D01*
X9296373Y-15753031D02*
X9286849Y-15724460D01*
X9286849Y-15724460D02*
X9277325Y-15676841D01*
X9277325Y-15676841D02*
X9277325Y-15638746D01*
X9277325Y-15638746D02*
X9286849Y-15591127D01*
X9286849Y-15591127D02*
X9296373Y-15562555D01*
X9296373Y-15562555D02*
X9305896Y-15543508D01*
X9305896Y-15543508D02*
X9324944Y-15514936D01*
X9324944Y-15514936D02*
X9334468Y-15505412D01*
X9410658Y-15600650D02*
X9410658Y-15733984D01*
X9410658Y-15619698D02*
X9420182Y-15610174D01*
X9420182Y-15610174D02*
X9439230Y-15600650D01*
X9439230Y-15600650D02*
X9467801Y-15600650D01*
X9467801Y-15600650D02*
X9486849Y-15610174D01*
X9486849Y-15610174D02*
X9496373Y-15629222D01*
X9496373Y-15629222D02*
X9496373Y-15733984D01*
X9620182Y-15733984D02*
X9601134Y-15724460D01*
X9601134Y-15724460D02*
X9591611Y-15714936D01*
X9591611Y-15714936D02*
X9582087Y-15695888D01*
X9582087Y-15695888D02*
X9582087Y-15638746D01*
X9582087Y-15638746D02*
X9591611Y-15619698D01*
X9591611Y-15619698D02*
X9601134Y-15610174D01*
X9601134Y-15610174D02*
X9620182Y-15600650D01*
X9620182Y-15600650D02*
X9648754Y-15600650D01*
X9648754Y-15600650D02*
X9667801Y-15610174D01*
X9667801Y-15610174D02*
X9677325Y-15619698D01*
X9677325Y-15619698D02*
X9686849Y-15638746D01*
X9686849Y-15638746D02*
X9686849Y-15695888D01*
X9686849Y-15695888D02*
X9677325Y-15714936D01*
X9677325Y-15714936D02*
X9667801Y-15724460D01*
X9667801Y-15724460D02*
X9648754Y-15733984D01*
X9648754Y-15733984D02*
X9620182Y-15733984D01*
X9743992Y-15600650D02*
X9820182Y-15600650D01*
X9772563Y-15533984D02*
X9772563Y-15705412D01*
X9772563Y-15705412D02*
X9782087Y-15724460D01*
X9782087Y-15724460D02*
X9801134Y-15733984D01*
X9801134Y-15733984D02*
X9820182Y-15733984D01*
X10039230Y-15600650D02*
X10039230Y-15800650D01*
X10039230Y-15610174D02*
X10058277Y-15600650D01*
X10058277Y-15600650D02*
X10096373Y-15600650D01*
X10096373Y-15600650D02*
X10115420Y-15610174D01*
X10115420Y-15610174D02*
X10124944Y-15619698D01*
X10124944Y-15619698D02*
X10134468Y-15638746D01*
X10134468Y-15638746D02*
X10134468Y-15695888D01*
X10134468Y-15695888D02*
X10124944Y-15714936D01*
X10124944Y-15714936D02*
X10115420Y-15724460D01*
X10115420Y-15724460D02*
X10096373Y-15733984D01*
X10096373Y-15733984D02*
X10058277Y-15733984D01*
X10058277Y-15733984D02*
X10039230Y-15724460D01*
X10248754Y-15733984D02*
X10229706Y-15724460D01*
X10229706Y-15724460D02*
X10220182Y-15705412D01*
X10220182Y-15705412D02*
X10220182Y-15533984D01*
X10410658Y-15733984D02*
X10410658Y-15629222D01*
X10410658Y-15629222D02*
X10401135Y-15610174D01*
X10401135Y-15610174D02*
X10382087Y-15600650D01*
X10382087Y-15600650D02*
X10343992Y-15600650D01*
X10343992Y-15600650D02*
X10324944Y-15610174D01*
X10410658Y-15724460D02*
X10391611Y-15733984D01*
X10391611Y-15733984D02*
X10343992Y-15733984D01*
X10343992Y-15733984D02*
X10324944Y-15724460D01*
X10324944Y-15724460D02*
X10315420Y-15705412D01*
X10315420Y-15705412D02*
X10315420Y-15686365D01*
X10315420Y-15686365D02*
X10324944Y-15667317D01*
X10324944Y-15667317D02*
X10343992Y-15657793D01*
X10343992Y-15657793D02*
X10391611Y-15657793D01*
X10391611Y-15657793D02*
X10410658Y-15648269D01*
X10477325Y-15600650D02*
X10553515Y-15600650D01*
X10505896Y-15533984D02*
X10505896Y-15705412D01*
X10505896Y-15705412D02*
X10515420Y-15724460D01*
X10515420Y-15724460D02*
X10534468Y-15733984D01*
X10534468Y-15733984D02*
X10553515Y-15733984D01*
X10696373Y-15724460D02*
X10677325Y-15733984D01*
X10677325Y-15733984D02*
X10639230Y-15733984D01*
X10639230Y-15733984D02*
X10620182Y-15724460D01*
X10620182Y-15724460D02*
X10610658Y-15705412D01*
X10610658Y-15705412D02*
X10610658Y-15629222D01*
X10610658Y-15629222D02*
X10620182Y-15610174D01*
X10620182Y-15610174D02*
X10639230Y-15600650D01*
X10639230Y-15600650D02*
X10677325Y-15600650D01*
X10677325Y-15600650D02*
X10696373Y-15610174D01*
X10696373Y-15610174D02*
X10705896Y-15629222D01*
X10705896Y-15629222D02*
X10705896Y-15648269D01*
X10705896Y-15648269D02*
X10610658Y-15667317D01*
X10877325Y-15733984D02*
X10877325Y-15533984D01*
X10877325Y-15724460D02*
X10858277Y-15733984D01*
X10858277Y-15733984D02*
X10820182Y-15733984D01*
X10820182Y-15733984D02*
X10801135Y-15724460D01*
X10801135Y-15724460D02*
X10791611Y-15714936D01*
X10791611Y-15714936D02*
X10782087Y-15695888D01*
X10782087Y-15695888D02*
X10782087Y-15638746D01*
X10782087Y-15638746D02*
X10791611Y-15619698D01*
X10791611Y-15619698D02*
X10801135Y-15610174D01*
X10801135Y-15610174D02*
X10820182Y-15600650D01*
X10820182Y-15600650D02*
X10858277Y-15600650D01*
X10858277Y-15600650D02*
X10877325Y-15610174D01*
X10953516Y-15810174D02*
X10963039Y-15800650D01*
X10963039Y-15800650D02*
X10982087Y-15772079D01*
X10982087Y-15772079D02*
X10991611Y-15753031D01*
X10991611Y-15753031D02*
X11001135Y-15724460D01*
X11001135Y-15724460D02*
X11010658Y-15676841D01*
X11010658Y-15676841D02*
X11010658Y-15638746D01*
X11010658Y-15638746D02*
X11001135Y-15591127D01*
X11001135Y-15591127D02*
X10991611Y-15562555D01*
X10991611Y-15562555D02*
X10982087Y-15543508D01*
X10982087Y-15543508D02*
X10963039Y-15514936D01*
X10963039Y-15514936D02*
X10953516Y-15505412D01*
M02*
