%TF.GenerationSoftware,KiCad,Pcbnew,8.0.6-8.0.6-0~ubuntu22.04.1*%
%TF.CreationDate,2024-12-02T16:14:19+00:00*%
%TF.ProjectId,miniv_motor_controller_board,6d696e69-765f-46d6-9f74-6f725f636f6e,rev?*%
%TF.SameCoordinates,Original*%
%TF.FileFunction,Plated,1,2,PTH,Mixed*%
%TF.FilePolarity,Positive*%
%FSLAX46Y46*%
G04 Gerber Fmt 4.6, Leading zero omitted, Abs format (unit mm)*
G04 Created by KiCad (PCBNEW 8.0.6-8.0.6-0~ubuntu22.04.1) date 2024-12-02 16:14:19*
%MOMM*%
%LPD*%
G01*
G04 APERTURE LIST*
%TA.AperFunction,ComponentDrill*%
%ADD10C,0.600000*%
%TD*%
G04 aperture for slot hole*
%TA.AperFunction,ComponentDrill*%
%ADD11C,0.600000*%
%TD*%
%TA.AperFunction,ComponentDrill*%
%ADD12C,0.700000*%
%TD*%
%TA.AperFunction,ComponentDrill*%
%ADD13C,0.762000*%
%TD*%
%TA.AperFunction,ComponentDrill*%
%ADD14C,0.800000*%
%TD*%
%TA.AperFunction,ComponentDrill*%
%ADD15C,0.900000*%
%TD*%
%TA.AperFunction,ComponentDrill*%
%ADD16C,1.000000*%
%TD*%
%TA.AperFunction,ComponentDrill*%
%ADD17C,1.020000*%
%TD*%
%TA.AperFunction,ComponentDrill*%
%ADD18C,1.090000*%
%TD*%
%TA.AperFunction,ComponentDrill*%
%ADD19C,1.100000*%
%TD*%
%TA.AperFunction,ComponentDrill*%
%ADD20C,1.600000*%
%TD*%
%TA.AperFunction,ComponentDrill*%
%ADD21C,1.900000*%
%TD*%
%TA.AperFunction,ComponentDrill*%
%ADD22C,2.700000*%
%TD*%
%TA.AperFunction,ComponentDrill*%
%ADD23C,3.200000*%
%TD*%
%TA.AperFunction,ComponentDrill*%
%ADD24C,3.250000*%
%TD*%
G04 APERTURE END LIST*
D10*
%TO.C,JP4*%
X44000000Y-112000000D03*
%TO.C,JP6*%
X50500000Y-65500000D03*
D11*
%TO.C,J2*%
X78650000Y-52550000D02*
X78650000Y-51450000D01*
X92150000Y-52550000D02*
X92150000Y-51450000D01*
%TO.C,J1*%
X96650000Y-52550000D02*
X96650000Y-51450000D01*
X110150000Y-52550000D02*
X110150000Y-51450000D01*
D10*
%TO.C,JP5*%
X118000000Y-102500000D03*
D12*
%TO.C,U7*%
X68600000Y-70890000D03*
X68600000Y-86110000D03*
X73680000Y-70890000D03*
X73680000Y-86110000D03*
X88920000Y-70890000D03*
X88920000Y-86110000D03*
X91460000Y-70890000D03*
X91460000Y-86110000D03*
D13*
%TO.C,M78AR05-1*%
X60500000Y-72710000D03*
X60500000Y-75250000D03*
X60516000Y-77790000D03*
D14*
%TO.C,U6*%
X47500000Y-107000000D03*
X47500000Y-109540000D03*
X47500000Y-112080000D03*
X47500000Y-114620000D03*
X47500000Y-117160000D03*
X47500000Y-119700000D03*
X47500000Y-122240000D03*
%TO.C,R2*%
X49000000Y-83000000D03*
X49000000Y-93160000D03*
%TO.C,U3*%
X49460000Y-71500000D03*
X49460000Y-79120000D03*
%TO.C,R1*%
X50340000Y-97000000D03*
%TO.C,R4*%
X50340000Y-102000000D03*
%TO.C,U3*%
X52000000Y-71500000D03*
X52000000Y-79120000D03*
%TO.C,U6*%
X55120000Y-107000000D03*
X55120000Y-109540000D03*
X55120000Y-112080000D03*
X55120000Y-114620000D03*
X55120000Y-117160000D03*
X55120000Y-119700000D03*
X55120000Y-122240000D03*
%TO.C,F1*%
X58265000Y-53300000D03*
X58265000Y-56700000D03*
%TO.C,R1*%
X60500000Y-97000000D03*
%TO.C,R4*%
X60500000Y-102000000D03*
%TO.C,R7*%
X62000000Y-92000000D03*
%TO.C,R6*%
X63000000Y-127500000D03*
X63000000Y-137660000D03*
%TO.C,SW2*%
X65000000Y-97000000D03*
X67500000Y-97000000D03*
%TO.C,R5*%
X68000000Y-133840000D03*
X68000000Y-144000000D03*
%TO.C,SW2*%
X70000000Y-97000000D03*
%TO.C,F1*%
X71735000Y-53300000D03*
X71735000Y-56700000D03*
%TO.C,R7*%
X72160000Y-92000000D03*
%TO.C,U2*%
X74000000Y-140000000D03*
X74000000Y-142540000D03*
%TO.C,R8*%
X75000000Y-92000000D03*
%TO.C,U2*%
X81620000Y-140000000D03*
X81620000Y-142540000D03*
%TO.C,R8*%
X85160000Y-92000000D03*
%TO.C,C1*%
X101000000Y-126000000D03*
%TO.C,U1*%
X103240000Y-116181600D03*
X103240000Y-118181600D03*
X103240000Y-120181600D03*
X105240000Y-116181600D03*
X105240000Y-118181600D03*
X105240000Y-120181600D03*
%TO.C,C1*%
X106000000Y-126000000D03*
%TO.C,U1*%
X117480000Y-113730000D03*
X117480000Y-116270000D03*
D15*
%TO.C,D2*%
X76960000Y-102000000D03*
X79500000Y-102000000D03*
%TO.C,U5*%
X96555000Y-132650000D03*
X97825000Y-130110000D03*
X99095000Y-132650000D03*
X100365000Y-130110000D03*
X101635000Y-132650000D03*
X102905000Y-130110000D03*
X104175000Y-132650000D03*
X105445000Y-130110000D03*
D16*
%TO.C,J3*%
X46000000Y-129000000D03*
X46000000Y-140000000D03*
%TO.C,J4*%
X114000000Y-81000000D03*
X114000000Y-83500000D03*
D17*
%TO.C,U5*%
X94675000Y-144080000D03*
X97215000Y-142380000D03*
X104785000Y-144080000D03*
X107325000Y-142380000D03*
D18*
%TO.C,SW1*%
X77460000Y-127460000D03*
X77460000Y-130000000D03*
X77460000Y-132540000D03*
X82540000Y-127460000D03*
X82540000Y-130000000D03*
X82540000Y-132540000D03*
D19*
%TO.C,JP2*%
X52000000Y-55000000D03*
%TO.C,U1*%
X59790000Y-107380000D03*
X59790000Y-122620000D03*
X62330000Y-107380000D03*
X62330000Y-122620000D03*
X64870000Y-107380000D03*
X64870000Y-122620000D03*
X67410000Y-107380000D03*
X67410000Y-122620000D03*
X69950000Y-107380000D03*
X69950000Y-122620000D03*
X72490000Y-107380000D03*
X72490000Y-122620000D03*
X75030000Y-107380000D03*
X75030000Y-122620000D03*
X77570000Y-107380000D03*
X77570000Y-122620000D03*
X80110000Y-107380000D03*
X80110000Y-122620000D03*
X82650000Y-107380000D03*
X82650000Y-122620000D03*
X85190000Y-107380000D03*
X85190000Y-122620000D03*
X87730000Y-107380000D03*
X87730000Y-122620000D03*
X90270000Y-107380000D03*
X90270000Y-122620000D03*
X92810000Y-107380000D03*
X92810000Y-122620000D03*
X95350000Y-107380000D03*
X95350000Y-122620000D03*
X97890000Y-107380000D03*
X97890000Y-122620000D03*
%TO.C,JP7*%
X100000000Y-62500000D03*
%TO.C,U1*%
X100430000Y-107380000D03*
X100430000Y-122620000D03*
X101750800Y-110430800D03*
X102970000Y-107380000D03*
X102970000Y-122620000D03*
X104290800Y-110430800D03*
X105510000Y-107380000D03*
X105510000Y-122620000D03*
X106830800Y-110430800D03*
X108050000Y-107380000D03*
X108050000Y-122620000D03*
X109370800Y-110430800D03*
X110590000Y-107380000D03*
X110590000Y-122620000D03*
X111910800Y-110430800D03*
X113130000Y-107380000D03*
X113130000Y-122620000D03*
X115670000Y-107380000D03*
X115670000Y-120080000D03*
X115670000Y-122620000D03*
X118210000Y-107380000D03*
X118210000Y-122620000D03*
D20*
%TO.C,U5*%
X93250000Y-135950000D03*
X108750000Y-135950000D03*
D21*
%TO.C,J3*%
X51000000Y-132000000D03*
X51000000Y-137000000D03*
D22*
%TO.C,J2*%
X81800000Y-58000000D03*
X89000000Y-58000000D03*
%TO.C,J1*%
X99800000Y-58000000D03*
X107000000Y-58000000D03*
D23*
%TO.C,U4*%
X57000000Y-67500000D03*
X57000000Y-91500000D03*
X105000000Y-67500000D03*
X105000000Y-91500000D03*
D24*
%TO.C,U5*%
X95285000Y-139000000D03*
X106715000Y-139000000D03*
M02*
